<!-- Generated by IcoMoon.io -->
<svg version="1.1" xmlns="http://www.w3.org/2000/svg" width="20" height="20" viewBox="0 0 768 768">
<g id="icomoon-ignore">
</g>
<path fill="#16a34a" d="M384 72c-172.32 0-312 139.68-312 312s139.68 312 312 312 312-139.68 312-312-139.68-312-312-312zM558.192 295.368l-227.664 227.64c-5.712 5.688-14.952 5.688-20.664 0l-4.584-4.584-0.024 0.024-125.256-126.144c-5.712-5.712-5.712-14.976 0-20.688l31.056-31.032c5.712-5.712 14.976-5.712 20.688 0l88.536 89.184 186.144-186.144c5.712-5.712 14.976-5.712 20.688 0l31.056 31.056c5.736 5.688 5.736 14.952 0.024 20.688z"></path>
</svg>
