<!-- Generated by IcoMoon.io -->
<svg version="1.1" xmlns="http://www.w3.org/2000/svg" viewBox="0 0 1024 1024">
<path fill="#639" d="M512.043 0.299c-284.8 0-511.744 226.944-511.744 511.701s226.944 511.787 511.701 511.787 511.744-226.944 511.744-511.744-226.901-511.744-511.701-511.744zM111.531 516.48l396.075 396.075c-218.069 0-396.075-178.005-396.075-396.075zM601.045 903.637l-480.597-480.597c39.979-178.005 200.235-311.509 391.552-311.509 132.822 0.268 250.576 64.541 324.093 163.607l0.771 1.087-57.813 48.896c-59.652-86.45-158.164-142.383-269.74-142.383-0.599 0-1.198 0.002-1.797 0.005h0.092c-0.615-0.004-1.342-0.007-2.070-0.007-140.679 0-260.309 90.117-304.312 215.773l-0.689 2.26 418.304 418.347c102.4-35.627 182.443-124.587 204.715-231.424h-173.568v-75.648h262.571c0 191.36-133.504 351.573-311.509 391.595z"></path>
</svg>
