<!-- Generated by IcoMoon.io -->
<svg version="1.1" xmlns="http://www.w3.org/2000/svg" viewBox="0 0 1024 1024">

<path fill="#430098" d="M879.36 0h-734.72c-51.243 0-92.16 40.96-92.16 92.16v839.723c0 51.115 40.917 92.117 92.16 92.117h734.72c51.2 0 92.117-41.003 92.117-92.117v-839.723c0.043-51.2-40.875-92.16-92.117-92.16zM920.32 931.883c0 22.997-17.963 40.96-40.96 40.96h-734.72c-23.040 0-40.96-17.963-40.96-40.96v-839.723c0-23.040 17.92-41.003 40.96-41.003h734.72c22.997 0 40.96 17.963 40.96 41.003zM282.88 870.357l115.2-102.357-115.2-102.4zM697.6 455.68c-20.437-20.48-58.837-46.080-122.837-46.080-69.163 0-140.843 17.963-192 35.84v-291.84h-102.4v442.88l71.68-33.28c0 0 117.76-53.76 220.16-53.76 51.2 0 64 28.16 64 53.76v307.2h102.4v-307.2c2.517-7.637 2.517-64.043-41.003-107.52zM561.92 320h102.4c46.080-53.76 69.12-107.563 76.8-166.4h-102.357c-10.283 58.837-35.883 112.64-76.843 166.4z"></path>
</svg>
