<svg version="1.1" id="Layer_1" xmlns:x="ns_extend;" xmlns:i="ns_ai;" xmlns:graph="ns_graphs;" xmlns:v="https://vecta.io/nano" xmlns="http://www.w3.org/2000/svg" xmlns:xlink="http://www.w3.org/1999/xlink" x="0px" y="0px" viewBox="0 0 52 52.3" style="enable-background:new 0 0 52 52.3;" xml:space="preserve">
 <style type="text/css">
  .st0{clip-path:url(#SVGID_2_);}
	.st1{fill:url(#SVGID_3_);}
	.st2{fill:url(#SVGID_4_);}
	.st3{fill:#FFFFFF;}
 </style>
 <metadata>
  <sfw xmlns="ns_sfw;">
   <slices>
   </slices>
   <sliceSourceBounds bottomLeftOrigin="true" height="52.3" width="52" x="-0.2" y="-0.5">
   </sliceSourceBounds>
  </sfw>
 </metadata>
 <g>
  <g>
   <defs>
    <rect id="SVGID_1_" width="52" height="52">
    </rect>
   </defs>
   <clipPath id="SVGID_2_">
    <use href="#SVGID_1_" style="overflow:visible;">
    </use>
   </clipPath>
   <g class="st0">
    <linearGradient id="SVGID_3_" gradientUnits="userSpaceOnUse" x1="26" y1="53.5789" x2="26" y2="1.5789" gradientTransform="matrix(1 0 0 -1 0 53.5789)">
     <stop offset="0" style="stop-color:#339999">
     </stop>
     <stop offset="1" style="stop-color:#2D8396">
     </stop>
    </linearGradient>
    <path class="st1" d="M52,0H0v52h52V0z">
    </path>
    <radialGradient id="SVGID_4_" cx="-89.1398" cy="227.0464" r="1" gradientTransform="matrix(18.6721 37.9893 27.1352 -13.3373 -4463.9092 6444.5356)" gradientUnits="userSpaceOnUse">
     <stop offset="0" style="stop-color:#395F5F">
     </stop>
     <stop offset="1" style="stop-color:#278888;stop-opacity:0">
     </stop>
    </radialGradient>
    <path class="st2" d="M31,36.4V7.7h3.2l14.3,44.5H27.8l-11.1-9.5C16.7,42.7,31,36.4,31,36.4z">
    </path>
    <g>
     <path class="st3" d="M34.6,7.7v24.8c0,6.5-5.2,11.8-11.7,11.8S11.1,39,11.1,32.5h6.8c0,2.7,2.2,5,5,5s5-2.2,5-5v-18h-5V7.7H34.6
					z">
     </path>
    </g>
   </g>
  </g>
 </g>
</svg>