<!-- Generated by IcoMoon.io -->
<svg version="1.1" xmlns="http://www.w3.org/2000/svg" viewBox="0 0 1024 1024">

<path fill="#de4f4f" d="M0 9.984l934.912 876.245c0 0 17.579 24.533-5.291 49.109-22.827 24.576-52.736 3.541-52.736 3.541zM277.675 97.792l725.76 667.221c0 0 17.621 24.576-5.248 49.152-22.784 24.576-52.693 3.541-52.693 3.541zM82.603 285.696l725.76 667.221c0 0 17.579 24.576-5.248 49.152s-52.693 3.499-52.693 3.499zM512.384 173.269l507.136 466.219c0 0 12.245 17.109-3.712 34.347s-36.821 2.475-36.821 2.475zM146.859 503.381l507.136 466.176c0 0 12.16 17.067-3.755 34.261-16 17.195-36.821 2.517-36.821 2.517zM752.171 282.155l231.509 211.413c0 0 6.059 8.021-1.877 16.085-7.893 8.021-18.261 1.152-18.261 1.152l-211.371-228.608zM263.595 735.189l231.467 211.456c0 0 6.144 8.021-1.792 16.085s-18.219 1.109-18.219 1.109z"></path>
</svg>
