<!-- Generated by IcoMoon.io -->
<svg version="1.1" xmlns="http://www.w3.org/2000/svg" viewBox="0 0 1024 1024">

<path fill="#47a248" d="M733.013 406.101c-53.888-237.227-180.992-315.179-194.645-345.003-15.019-21.035-31.275-61.099-31.275-61.099-0.085 0.811-0.171 1.323-0.213 2.091v0.555h-0.043c-0.085 0.64-0.128 1.067-0.171 1.664v0.64h-0.085c0 0.427-0.085 0.768-0.085 1.109v1.109h-0.128c-0.043 0.341-0.043 0.768-0.128 1.067v0.896h-0.085c0 0.299 0 0.64-0.085 0.896v0.853h-0.085c0 0.427-0.043 0.939-0.085 1.365v0.085c-0.128 0.725-0.256 1.451-0.384 2.133v0.341h-0.085c-0.043 0.171-0.128 0.341-0.128 0.512v0.725h-0.128v0.939h-0.213v0.768h-0.213v0.896h-0.171v0.811h-0.171v0.725h-0.256v0.597h-0.171v0.768h-0.171v0.597h-0.213v0.555h-0.128v0.64h-0.171c-0.043 0.043-0.043 0.128-0.043 0.171v0.427h-0.128c-0.043 0.085-0.043 0.171-0.043 0.256v0.256h-0.085c-0.043 0.128-0.085 0.341-0.085 0.427-0.128 0.299-0.299 0.597-0.427 0.896v0.085c-0.085 0.085-0.171 0.213-0.213 0.299v0.341h-0.171v0.341h-0.213v0.341h-0.128v0.427h-0.256v0.597h-0.171v0.171h-0.171v0.341h-0.171v0.469h-0.171v0.341h-0.256v0.469h-0.171v0.341h-0.213v0.341h-0.128v0.427h-0.213v0.341h-0.171v0.256h-0.171v0.341h-0.256v0.384h-0.171v0.256h-0.213v0.341h-0.171v0.469h-0.213v0.171h-0.128v0.341h-0.256v0.171h-0.171v0.427h-0.171v0.171h-0.171v0.341h-0.213v0.256h-0.128l-0.085 0.171v0.171h-0.085c-0.043 0.085-0.085 0.085-0.085 0.171v0.043h-0.043c-0.043 0.128-0.085 0.213-0.171 0.299v0.128h-0.043c-0.213 0.256-0.341 0.512-0.512 0.768v0.043c-0.085 0.085-0.299 0.256-0.384 0.427v0.085h-0.043c-0.043 0.043-0.128 0.085-0.128 0.128v0.128h-0.085l-0.128 0.128v0.043h-0.043c0 0.043-0.085 0.085-0.128 0.171v0.171h-0.128l-0.085 0.085v0.085h-0.085c0 0.085-0.085 0.085-0.085 0.128v0.128h-0.171c0 0.043-0.043 0.085-0.085 0.128v0.256h-0.128v0.171h-0.171v0.256h-0.171v0.341h-0.213v-0.341h-0.213v0.171h-0.171v0.256h-0.213v0.341h-0.213v0.171h-0.171v0.256h-0.171v0.171h-0.171v0.341h-0.256v0.171h-0.171v0.256h-0.213v0.171h-0.171v0.213h-0.213v0.427h-0.085v0.171h-0.256v0.213h-0.171v0.085h-0.171v0.171h-0.213v0.427h-0.171v0.171h-0.213v0.171h-0.171v0.256h-0.213v0.171h-0.213v0.171h-0.171v0.171h-0.171v0.427h-0.171v0.213h-0.256v0.171h-0.171v0.171h-0.213v0.256h-0.171v0.171h-0.213v0.299h-0.171v0.171h-0.256v0.256h-0.085v0.171h-0.171v0.171h-0.213v0.171h-0.171v0.256h-0.213v0.171h-0.128c-0.043 0.043-0.043 0.085-0.043 0.085v0.085h-0.085l-0.171 0.171c0 0-0.085 0.085-0.171 0.128v0.256h-0.171v0.213h-0.171v0.171h-0.171v0.171h-0.128l-0.128 0.128v0.128h-0.085l-0.085 0.085v0.128h-0.085c-0.213 0.256-0.299 0.427-0.597 0.683-0.085 0.085-0.341 0.299-0.512 0.427-0.512 0.341-1.152 0.896-1.664 1.365-0.341 0.213-0.683 0.512-0.939 0.725v0.043h-0.043c-0.683 0.555-1.323 1.067-2.091 1.664v0.043c-1.024 0.853-2.005 1.664-3.157 2.645v-0.043h-0.085c-2.432 2.005-4.992 4.267-7.936 6.784v0.043h-0.043c-7.211 6.315-15.787 14.421-25.387 24.235l-0.811 0.811c-58.027 60.032-149.461 185.131-159.104 387.285-0.853 16.725-0.683 32.981 0.256 48.811v0.384c4.651 79.659 29.653 147.669 60.928 202.923v0.043c12.459 22.016 25.899 42.027 39.509 59.947v0.043c47.019 62.080 95.019 98.859 107.264 107.776 18.816 43.648 17.067 118.571 17.067 118.571l27.477 9.173c0 0-5.589-72.576 2.261-107.605 2.432-10.965 8.192-20.309 14.891-28.245 4.523-3.2 17.92-12.843 34.005-27.52 0.768-0.811 1.195-1.536 1.877-2.304 64.896-60.501 186.112-209.493 144.555-452.224z"></path>
</svg>
