<!-- Generated by IcoMoon.io -->
<svg version="1.1" xmlns="http://www.w3.org/2000/svg" viewBox="0 0 1024 1024">

<path fill="#00c7b7" d="M722.517 363.477c5.031 2.564 9.311 5.849 12.897 9.778l0.031 0.035 100.224-44.587-93.525-92.629-20.949 126.037zM514.56 279.296c4.664 6.945 7.844 15.262 8.893 24.23l0.025 0.261 149.205 63.232c4.296-3.318 9.348-5.909 14.832-7.475l0.314-0.077 24.491-151.467-90.88-95.317-106.88 164.352zM1023.701 513.579l-159.915-159.915-108.715 44.544 267.264 113.579c0 0 2.261 1.792 1.365 1.792zM996.949 539.435l-256.555-109.611c-7.086 9.331-17.603 15.739-29.639 17.341l-0.227 0.025-27.605 168.832c7.947 8.005 12.875 19.017 12.928 31.179v0.010l155.008 32.512 142.080-141.227v-2.645zM657.067 394.667l-139.435-59.307c-9.28 14.052-25.004 23.196-42.863 23.196-0.591 0-1.18-0.010-1.767-0.030l0.085 0.002h-8.491l-115.371 178.219 308.267-133.632v0.427c-0.107-1.068-0.168-2.308-0.168-3.563s0.061-2.495 0.18-3.718l-0.012 0.155c0.022-0.119 0.035-0.255 0.035-0.394 0-0.513-0.174-0.985-0.466-1.36l0.004 0.005zM826.325 706.475l-136.32-28.075c-5.081 6.457-11.699 11.485-19.313 14.565l-0.314 0.112-32.469 201.387 189.312-187.563c0 0-0.427 0.853-0.896 0.853zM635.648 692.651c-12.99-5.427-22.701-16.456-26.214-29.984l-0.068-0.31-253.867-52.139-3.584 5.803 230.315 333.227 13.781-13.824 39.211-241.92c0 0 1.323 0.939 0.427 0.469zM360.832 579.499l250.795 51.669c7.25-12.493 20.086-21.050 34.999-22.262l0.159-0.010 27.179-166.144-5.76-4.907-311.808 133.632c1.434 2.218 2.912 4.845 4.235 7.562l0.202 0.46zM255.701 621.355l-5.333-5.333-108.245 44.544 52.565 52.139 59.691-92.672zM326.955 638.293c-7.046 3.318-15.298 5.278-24.002 5.333h-0.019c-0.071 0-0.155 0-0.239 0-6.786 0-13.306-1.141-19.378-3.24l0.416 0.125-65.877 95.787 288.64 285.952 50.773-50.347zM286.421 525.611c2.008-0.197 4.34-0.31 6.699-0.31s4.691 0.112 6.992 0.332l-0.293-0.023c2.204-0.293 4.752-0.46 7.339-0.46s5.135 0.167 7.634 0.491l-0.295-0.031 116.693-181.333c-8.792-9.094-14.219-21.489-14.251-35.151v-0.006c-0.201-1.735-0.316-3.745-0.316-5.781s0.115-4.047 0.339-6.024l-0.022 0.242-141.653-65.493-114.005 110.933zM299.349 209.792l138.112 58.795c9.078-7.512 20.84-12.068 33.666-12.068 0.69 0 1.376 0.013 2.059 0.039l-0.098-0.003c6.067 0.055 11.885 1.034 17.348 2.803l-0.41-0.115 107.776-168.405-89.088-89.088-209.365 205.355c0 0-0.427 2.219 0 2.688zM247.723 558.123c2.937-5.43 6.338-10.11 10.271-14.284l-0.031 0.034-118.101-176.384-139.861 135.851zM236.544 587.989l-213.803-44.629 93.995 95.36 118.485-50.347z"></path>
</svg>
