<!-- Generated by IcoMoon.io -->
<svg version="1.1" xmlns="http://www.w3.org/2000/svg" viewBox="0 0 1024 1024">
<g id="icomoon-ignore">
</g>
<path fill="#ff6c37" d="M577.152 4.224c-280.405-35.968-536.96 162.176-572.928 442.624-35.968 280.405 162.133 536.917 442.581 572.928 280.448 35.968 537.045-162.176 572.928-442.624 36.011-280.405-162.091-536.917-442.581-572.928zM682.581 323.584c-9.892 0.134-18.812 4.184-25.302 10.667v0l-189.995 189.995-40.533-40.533c187.264-186.709 221.013-188.501 255.829-160.128zM475.093 530.987l189.44-189.44c4.827-5.055 11.619-8.199 19.145-8.199 14.61 0 26.453 11.844 26.453 26.453 0 8.121-3.66 15.388-9.42 20.24l-0.040 0.033-200.491 176zM489.173 560.597l-46.933 10.155c-0.169 0.040-0.363 0.063-0.563 0.063-1.002 0-1.869-0.575-2.289-1.413l-0.007-0.015c-0.217-0.368-0.345-0.811-0.345-1.283 0-0.718 0.295-1.366 0.771-1.831v0l27.52-27.52zM369.579 541.013l50.005-50.005 37.504 37.461-84.437 18.176c-0.238 0.064-0.511 0.101-0.793 0.101-1.237 0-2.308-0.711-2.826-1.747l-0.008-0.018c-0.306-0.47-0.488-1.044-0.488-1.662 0-0.917 0.402-1.741 1.039-2.304l0.003-0.003zM214.016 799.488c-1.665-0.151-2.959-1.539-2.959-3.23 0-0.11 0.005-0.218 0.016-0.325l-0.001 0.013c0.086-0.772 0.429-1.451 0.939-1.963v0h0.085l40.363-40.363 52.139 52.139zM317.483 745.899c-3.151 1.653-5.263 4.901-5.263 8.643 0 0.809 0.099 1.595 0.285 2.347l-0.014-0.067 8.661 36.907c0.098 0.383 0.154 0.822 0.154 1.274 0 2.946-2.388 5.333-5.333 5.333-1.499 0-2.854-0.618-3.823-1.614l-0.001-0.001h-0.128l-52.395-52.437 160.512-160.341 77.653-16.768 37.291 37.291c-53.547 47.019-126.763 93.909-217.6 139.435zM542.72 599.637h-0.085l-35.797-35.797 200.491-176c1.85-1.648 3.514-3.42 5.010-5.33l0.067-0.089c-6.315 57.387-86.571 138.453-169.685 217.216zM698.752 324.011l-0.128-0.085c-13.99-14.055-22.639-33.437-22.639-54.839 0-42.934 34.805-77.739 77.739-77.739 19.012 0 36.43 6.825 49.937 18.158l-0.12-0.098-68.693 68.821c-0.928 0.92-1.502 2.196-1.502 3.605s0.574 2.685 1.502 3.605v0l53.205 53.205c-10.049 5.098-21.911 8.085-34.47 8.085-21.414 0-40.801-8.682-54.831-22.719v0zM808.747 324.011c-3.439 3.397-7.221 6.461-11.286 9.131l-0.277 0.171h-0.043l-51.499-51.499 65.408-65.408c28.203 30.72 27.179 78.165-2.304 107.605zM804.48 258.133c-1.535 1.122-2.52 2.916-2.52 4.94 0 0.627 0.095 1.232 0.27 1.802l-0.011-0.043c1.157 2.292 1.835 4.996 1.835 7.859 0 4.326-1.547 8.29-4.119 11.369l0.023-0.028c-0.807 1.010-1.295 2.305-1.295 3.714 0 1.897 0.885 3.588 2.264 4.682l0.012 0.009c0.979 0.773 2.223 1.25 3.577 1.28h0.007c1.813-0.017 3.431-0.838 4.515-2.124l0.007-0.009c4.245-5.072 6.823-11.666 6.823-18.861 0-4.805-1.149-9.341-3.188-13.349l0.077 0.168c-1.078-1.533-2.839-2.522-4.831-2.522-1.294 0-2.491 0.418-3.463 1.126l0.017-0.012z"></path>
</svg>
