<!-- Generated by IcoMoon.io -->
<svg version="1.1" xmlns="http://www.w3.org/2000/svg" viewBox="0 0 1024 1024">
<g id="icomoon-ignore">
</g>
<path fill="#ff4785" d="M697.173 10.24l-5.12 115.627c-0.004 0.097-0.007 0.212-0.007 0.326 0 4.242 3.438 7.68 7.68 7.68 1.778 0 3.416-0.604 4.717-1.619l-0.017 0.013 45.227-34.133 38.4 29.867c1.201 0.815 2.682 1.301 4.277 1.301 4.099 0 7.448-3.211 7.668-7.255l0.001-0.020-4.267-117.76 56.747-4.267c1.021-0.073 2.212-0.114 3.413-0.114 28.277 0 51.2 22.923 51.2 51.2 0 0.040 0 0.080 0 0.12v-0.006 921.6c0 0.019 0 0.042 0 0.064 0 28.277-22.923 51.2-51.2 51.2-0.9 0-1.796-0.023-2.685-0.069l0.124 0.005-686.933-30.72c-26.777-1.137-48.168-22.676-49.064-49.409l-0.002-0.084-32-844.8c-0.059-0.917-0.092-1.989-0.092-3.069 0-27.259 21.302-49.542 48.167-51.112l0.139-0.006 563.2-35.413zM566.187 396.8c0 20.053 134.827 10.24 153.173-3.413 0-136.533-73.387-208.64-207.36-208.64-134.4 0-209.067 73.387-209.067 183.040 0 189.867 256 193.28 256 296.96 0 29.867-13.653 46.933-44.8 46.933-40.96 0-57.6-20.907-55.467-92.16 0-15.36-155.733-20.48-160.853 0-11.52 171.947 95.147 221.867 217.6 221.867 119.040 0 212.053-63.573 212.053-178.347 0-203.52-260.267-197.973-260.267-298.667 0-41.387 30.72-46.933 48.213-46.933 19.2 0 53.333 2.987 50.773 79.36z"></path>
</svg>
