<!-- Generated by IcoMoon.io -->
<svg version="1.1" xmlns="http://www.w3.org/2000/svg" viewBox="0 0 1024 1024">

<path fill="#db7093" d="M691.797 288.512l-3.2 16.683c-4.949 31.616-3.157 40.661 10.411 52.395l13.099 10.837-13.568 60.501c-8.107 36.096-18.048 66.347-24.363 76.288-5.419 8.576-11.733 21.205-13.099 27.989-2.261 8.107-9.941 16.256-21.675 23.467-10.368 5.888-30.72 21.675-45.141 34.347-11.52 10.368-19.456 16.725-23.765 19.456l-14.080 11.136c-4.523 7.253-7.083 13.099-8.064 17.536-0.981 4.565-0.427 7.595 1.024 9.813 1.408 2.133 3.84 3.627 7.168 4.565 2.79 0.682 5.994 1.074 9.288 1.074 0.965 0 1.923-0.034 2.872-0.1l-0.128 0.007c9.883-0.691 19.075-2.391 27.871-5.010l-0.906 0.232c2.987-0.811 5.333-1.579 7.381-2.261 3.157-3.883 10.453-11.221 23.381-23.979 34.304-33.835 47.403-52.352 33.877-47.36-4.992 1.792-2.731-2.731 5.845-11.776 18.091-17.621 28.459-44.245 50.133-127.744 17.152-65.92 17.152-66.859 29.781-66.859 5.931 0 22.699 1.024 22.699 1.024v-82.261h-38.485zM855.595 423.552c-2.731 0-7.253 4.096-9.941 8.619-4.949 8.107 0.896 13.056 75.392 59.563 44.245 28.032 79.915 51.925 79.019 53.76-0.896 1.323-37.035 24.832-80.341 51.925-78.592 48.725-79.019 49.195-71.808 59.136 9.045 11.733 0 15.787 102.016-47.872l74.069-47.403v-35.669l-82.645-51.029c-44.672-27.989-83.499-50.56-85.76-51.029zM169.301 428.544c-2.261 0-41.088 23.040-85.76 50.56l-83.541 51.029v35.669l83.072 51.925c46.080 28.416 84.907 51.925 86.699 51.925s5.419-4.096 9.045-9.045c5.419-8.576 0.853-12.203-75.435-60.501-72.661-45.611-80.341-51.925-73.088-56.875 4.523-3.157 38.827-24.405 75.861-47.403 84.437-51.925 79.915-48.341 73.131-59.179-2.688-4.48-7.253-8.533-9.984-8.107zM539.819 429.525c-12.459-0.085-39.253 18.901-119.467 84.395-3.456 8.235-3.755 13.909-2.176 17.579 1.024 2.517 2.901 4.267 5.504 5.547 2.56 1.28 5.888 2.048 9.557 2.347 7.296 0.64 15.915-0.512 22.869-1.877l4.693-1.067c1.604-2.136 3.666-3.842 6.046-4.992l0.098-0.043c4.949-2.731 25.728-21.675 46.507-41.984 36.565-37.035 45.141-53.76 30.251-59.179-1.121-0.459-2.423-0.726-3.786-0.726-0.034 0-0.068 0-0.101 0h0.005zM633.515 455.253c-10.965 0.299-30.72 13.013-64.555 40.021-16.981 13.781-27.733 21.205-33.493 22.741l-22.357 17.664c-8.405 15.36-9.643 24.875-7.424 30.123 1.143 2.619 3.228 4.648 5.816 5.692l0.072 0.026c2.99 1.215 6.459 1.92 10.092 1.92 0.052 0 0.104 0 0.156 0h-0.008c8.851-0.097 17.355-1.415 25.405-3.793l-0.658 0.167c5.25-1.404 9.385-2.746 13.437-4.26l-1.021 0.334 1.237-0.512 2.261-1.195c4.267-5.504 14.080-15.872 26.368-27.819 38.827-37.461 58.667-64.085 54.613-74.027-1.835-4.821-4.992-7.253-9.941-7.083zM530.091 501.333c-3.157 0.341-10.24 5.803-22.997 16.981-18.432 16.299-38.528 25.685-45.483 21.504-0.489 0.155-2.131 0.511-3.781 0.842l-1.083 0.182c-7.083 1.408-15.915 2.56-23.808 1.92-3.945-0.245-7.607-1.211-10.938-2.766l0.186 0.078c-3.205-1.49-5.714-4.027-7.131-7.163l-0.037-0.091c-1.579-3.84-1.579-8.619 0.213-14.72l-27.733 22.784-62.763 51.925v84.181l205.653-162.005c-0.003-0.117-0.004-0.255-0.004-0.393 0-1.73 0.251-3.4 0.719-4.978l-0.031 0.124c1.579-5.717 1.493-8.619-0.981-8.405zM618.581 528.597c-3.115 0-8.32 4.395-16.64 13.227-11.307 12.075-29.099 23.765-38.528 26.155l-1.451 0.768c-0.917 0.416-2.47 1.022-4.041 1.587l-0.652 0.205c-2.56 0.853-5.888 1.877-9.728 2.901-7.68 2.091-17.237 4.011-25.771 3.797-4.231-0.006-8.263-0.852-11.94-2.38l0.207 0.076c-3.529-1.481-6.297-4.193-7.813-7.587l-0.037-0.093c-2.475-5.931-1.493-14.251 3.925-26.069l-181.419 142.891v51.413h79.701l169.045-132.779c4.395-4.864 11.008-11.52 19.925-19.84 23.893-22.144 29.312-29.781 29.312-41.088 0-8.789-0.981-13.227-4.096-13.184zM658.816 611.797l-14.464 14.421c-8.107 7.68-22.571 17.152-32.469 21.205l-1.963 0.853-0.128 0.213-0.427 0.427c-0.384 0.299-0.555 0.341-0.853 0.469-2.921 1.177-6.922 2.53-10.998 3.711l-1.034 0.257c-8.12 2.464-17.576 4.209-27.326 4.884l-0.407 0.023c-0.845 0.058-1.831 0.090-2.825 0.090-3.692 0-7.278-0.453-10.705-1.307l0.304 0.064c-3.856-0.869-7.093-3.076-9.27-6.098l-0.032-0.046c-2.048-3.157-2.645-7.381-1.493-12.587 1.017-4.055 2.406-7.606 4.177-10.921l-0.124 0.254-136.405 107.776h181.419l21.675-24.832c29.781-34.731 43.349-59.563 43.349-80.811z"></path>
</svg>
