<!-- Generated by IcoMoon.io -->
<svg version="1.1" xmlns="http://www.w3.org/2000/svg" viewBox="0 0 1024 1024">
<g id="icomoon-ignore">
</g>
<path fill="#85ea2d" d="M512 0c-282.325 0-512 229.675-512 512s229.675 512 512 512c282.283 0 512-229.675 512-512s-229.717-512-512-512zM512 48.811c255.787 0 463.189 207.36 463.189 463.189 0 255.787-207.36 463.189-463.189 463.189s-463.189-207.36-463.189-463.189 207.36-463.189 463.189-463.189zM357.12 250.368c-1.679-0.035-3.659-0.056-5.643-0.056-4.363 0-8.703 0.098-13.018 0.291l0.613-0.022c-41.941 2.389-67.115 22.059-74.027 62.805-4.907 28.373-4.096 57.515-6.101 86.059-0.555 14.933-2.133 29.739-4.907 44.288-5.717 25.984-16.939 34.048-43.349 35.413-4.153 0.519-7.691 1.148-11.168 1.936l0.757-0.144v62.421c48.043 2.347 54.528 19.285 58.453 69.504 1.408 18.304-0.555 36.608 0.64 54.912 0.768 17.323 3.115 34.475 6.656 51.2 11.051 45.867 55.765 61.227 109.867 51.968v-54.741c-8.661 0-16.341 0.213-23.808 0-18.347-0.555-25.216-5.12-26.965-22.827-2.389-22.827-1.792-46.080-3.2-69.12-2.731-42.709-7.467-84.821-49.195-112 21.461-15.787 37.035-34.645 41.941-59.648 3.541-17.493 5.717-35.029 7.083-52.779 1.195-17.707-0.981-35.84 0.597-53.333 2.56-28.373 4.352-39.979 38.4-38.827 5.12 0 10.027-0.725 15.744-1.152v-55.893c-6.827 0-13.227-0.171-19.371-0.256zM681.088 250.752c-1.211-0.029-2.638-0.046-4.069-0.046-10.818 0-21.414 0.948-31.71 2.765l1.091-0.159v54.357c10.453 0 18.517 0 26.581 0.213 13.995 0.171 24.619 5.547 26.027 21.077 1.365 14.165 1.323 28.544 2.731 42.923 2.773 28.544 4.309 57.472 9.259 85.632 4.352 23.211 20.267 40.533 40.149 54.741-34.859 23.424-45.099 56.875-46.848 94.507-0.981 25.771-1.579 51.755-2.944 77.739-1.195 23.637-9.472 31.317-33.28 31.915-6.699 0.171-13.227 0.768-20.651 1.195v55.68c13.952 0 26.752 0.811 39.552 0 39.765-2.347 63.787-21.632 71.68-60.245 3.328-21.248 5.291-42.667 5.888-64.171 1.365-19.669 1.195-39.552 3.157-59.051 2.944-30.507 16.939-43.093 47.445-45.099 3.172-0.396 6.043-1.084 8.781-2.052l-0.29 0.089v-62.421c-5.12-0.597-8.704-1.152-12.416-1.365-22.869-0.981-34.304-8.661-39.979-30.293-3.313-12.42-5.628-26.91-6.46-41.796l-0.026-0.572c-1.579-26.368-1.408-52.949-3.157-79.36-3.413-50.859-33.877-74.795-80.512-76.203zM387.115 476.032c-0.012 0-0.026 0-0.040 0-19.888 0-36.011 16.123-36.011 36.011 0 18.655 14.185 33.997 32.358 35.828l0.151 0.012h2.347c0.618 0.038 1.339 0.060 2.066 0.060 18.829 0 34.226-14.695 35.348-33.242l0.005-0.099v-1.963c0.003-0.165 0.004-0.36 0.004-0.555 0-19.912-16.142-36.053-36.053-36.053-0.062 0-0.123 0-0.184 0h0.009zM511.317 476.032c-0.337-0.012-0.732-0.019-1.129-0.019-18.626 0-33.802 14.771-34.453 33.239l-0.002 0.060c0 1.152 0 2.133 0.171 3.328 0 21.461 14.592 35.243 36.651 35.243 21.632 0 35.243-14.165 35.243-36.395-0.213-21.461-14.592-35.669-36.48-35.456zM637.739 476.032c-0.195-0.004-0.426-0.006-0.657-0.006-19.901 0-36.105 15.824-36.718 35.576l-0.001 0.056c0 20.053 16.128 36.224 36.224 36.224h0.384c18.133 3.157 36.395-14.379 37.589-35.413 0.981-19.499-16.725-36.437-36.821-36.437z"></path>
</svg>
