<!-- Generated by IcoMoon.io -->
<svg version="1.1" xmlns="http://www.w3.org/2000/svg" viewBox="0 0 768 768">
<g id="icomoon-ignore">
</g>
<path d="M703.872 412.224c0.704-7.456-1.216-15.232-6.016-21.792-10.4-14.272-30.432-17.408-44.704-7.008-30.4 22.176-65.92 34.752-102.016 37.184-43.776 2.944-88.48-9.056-126.4-37.056-42.656-31.52-68.448-77.28-75.744-125.92s3.968-99.968 35.488-142.592c4.544-6.112 6.912-13.92 6.112-22.112-1.696-17.6-17.344-30.464-34.944-28.736-72.256 7.040-138.048 37.76-188.64 84.832-55.552 51.68-92.864 123.104-100.384 204.352-8.128 87.968 20.192 170.976 72.512 233.952s128.704 106.016 216.704 114.144 170.976-20.192 233.952-72.512 106.016-128.704 114.144-216.704zM626.144 469.568c-15.68 43.616-42.72 81.376-77.312 110.112-50.432 41.888-116.736 64.512-187.136 58.016s-131.456-40.896-173.344-91.328-64.512-116.736-58.016-187.136c5.984-65.024 35.744-122.048 80.224-163.392 25.024-23.296 54.72-41.6 87.392-53.504-14.592 40.448-18.464 83.392-12.288 124.768 9.696 64.736 44.16 125.888 100.992 167.904 50.496 37.344 110.336 53.376 168.704 49.44 24.064-1.6 47.872-6.624 70.72-14.88z" fill='currentColor'></path>
</svg>
