<!-- Generated by IcoMoon.io -->
<svg version="1.1" xmlns="http://www.w3.org/2000/svg" viewBox="0 0 768 768">
<g id="icomoon-ignore">
</g>
<path d="M576 384c0-53.024-21.536-101.056-56.224-135.776s-82.752-56.224-135.776-56.224-101.056 21.536-135.776 56.224-56.224 82.752-56.224 135.776 21.536 101.056 56.224 135.776 82.752 56.224 135.776 56.224 101.056-21.536 135.776-56.224 56.224-82.752 56.224-135.776zM512 384c0 35.36-14.304 67.296-37.504 90.496s-55.136 37.504-90.496 37.504-67.296-14.304-90.496-37.504-37.504-55.136-37.504-90.496 14.304-67.296 37.504-90.496 55.136-37.504 90.496-37.504 67.296 14.304 90.496 37.504 37.504 55.136 37.504 90.496zM352 32v64c0 17.664 14.336 32 32 32s32-14.336 32-32v-64c0-17.664-14.336-32-32-32s-32 14.336-32 32zM352 672v64c0 17.664 14.336 32 32 32s32-14.336 32-32v-64c0-17.664-14.336-32-32-32s-32 14.336-32 32zM112.416 157.664l45.44 45.44c12.512 12.512 32.768 12.512 45.248 0s12.512-32.768 0-45.248l-45.44-45.44c-12.512-12.512-32.768-12.512-45.248 0s-12.512 32.768 0 45.248zM564.896 610.144l45.44 45.44c12.512 12.512 32.768 12.512 45.248 0s12.512-32.768 0-45.248l-45.44-45.44c-12.512-12.512-32.768-12.512-45.248 0s-12.512 32.768 0 45.248zM32 416h64c17.664 0 32-14.336 32-32s-14.336-32-32-32h-64c-17.664 0-32 14.336-32 32s14.336 32 32 32zM672 416h64c17.664 0 32-14.336 32-32s-14.336-32-32-32h-64c-17.664 0-32 14.336-32 32s14.336 32 32 32zM157.664 655.584l45.44-45.44c12.512-12.512 12.512-32.768 0-45.248s-32.768-12.512-45.248 0l-45.44 45.44c-12.512 12.512-12.512 32.768 0 45.248s32.768 12.512 45.248 0zM610.144 203.104l45.44-45.44c12.512-12.512 12.512-32.768 0-45.248s-32.768-12.512-45.248 0l-45.44 45.44c-12.512 12.512-12.512 32.768 0 45.248s32.768 12.512 45.248 0z" fill='currentColor'></path>
</svg>
