<!-- Generated by IcoMoon.io -->
<svg version="1.1" xmlns="http://www.w3.org/2000/svg"  viewBox="0 0 1024 1024" fill="none">
<path d="M768 1025.312h-576c-35.36 0-64-28.576-64-63.872v-771.104c0-35.264 28.64-63.84 64-63.84h160v66.528h-128c-17.664 0-32 14.272-32 31.936v704.544c0 17.696 14.336 31.936 32 31.936h512c17.696 0 32-14.24 32-31.936v-704.544c0-17.664-14.304-31.936-32-31.936h-128v-66.528h160c35.328 0 64 28.608 64 63.84v771.104c0 35.296-28.672 63.872-64 63.872zM352 384.608h352v31.936h-352v-31.936zM352 480.416h352v31.936h-352v-31.936zM352 576.256h352v31.936h-352v-31.936zM352 672.064h352v31.936h-352v-31.936zM704 895.552h-352v-31.872h352v31.872zM352 767.872h352v31.936h-352v-31.936zM256 383.968h32v31.936h-32v-31.936zM256 479.776h32v31.936h-32v-31.936zM256 575.552h32v31.936h-32v-31.936zM256 671.36h32v31.936h-32v-31.936zM288 894.944h-32v-31.936h32v31.936zM256 767.2h32v31.936h-32v-31.936zM672 226.912c17.696 0 32 14.304 32 31.968 0 17.632 0 61.856 0 61.856h-448c0 0 0-44.224 0-61.856 0-17.664 14.304-31.968 32-31.968h96c0 0 0.384-45.408 0.384-97.312 0-53.888 41.6-98.944 95.616-98.944s97.056 47.36 97.056 99.264c0 55.904-1.056 96.992-1.056 96.992h96zM480 126.496c-17.696 0-32 14.272-32 31.904 0 17.664 14.304 31.936 32 31.936s32-14.272 32-31.936c0-17.632-14.304-31.904-32-31.904z" fill="currentColor"></path>
</svg>
